<svg width="1364" height="1365" viewBox="0 0 1364 1365" fill="none" xmlns="http://www.w3.org/2000/svg">
<path d="M633.565 1.64084C522.824 12.678 410.028 52.0964 319.38 111.787C269.603 144.673 241.29 167.423 199.734 208.644C140.824 266.532 104.519 316.312 70.7259 384.337C31.6811 462.723 10.2179 534.803 2.22624 614.991C-0.74208 644.949 -0.74208 743.157 2.22624 769.511C11.1312 845.87 42.1844 942.051 80.3159 1010.53C99.4958 1044.76 128.037 1087.34 150.871 1115.27C266.635 1257.4 439.711 1346.82 630.14 1363.26C671.011 1366.87 743.164 1364.62 781.296 1358.76C1007.34 1323.62 1195.49 1189.15 1295.04 991.38C1325.87 930.338 1348.93 852.627 1359.89 772.89C1365.37 733.246 1365.37 640.669 1359.89 600.575C1347.79 511.152 1313.54 414.07 1268.1 339.963C1231.57 280.498 1196.86 237.025 1150.51 192.876C1046.16 93.542 913.272 27.9948 772.848 6.82155C744.306 2.54184 657.54 -0.836883 633.565 1.64084ZM640.643 49.6186C661.193 58.8538 664.39 70.3415 664.39 134.537V184.542L651.832 190.399C620.778 205.49 607.307 242.656 622.377 272.389C628.998 285.678 645.21 300.77 656.627 304.374L664.39 307.077V436.369V565.887L658.682 571.293C647.722 582.33 640.415 576.924 629.227 549.894C618.952 525.793 606.85 508.899 578.765 479.842C524.194 423.755 511.864 385.914 511.407 275.768C511.407 228.691 507.297 205.715 487.661 139.943C483.094 124.401 478.527 104.129 477.842 94.6682L476.472 77.3241L489.487 72.5939C505.927 66.5122 557.987 53.2226 581.734 48.9429C607.535 44.4379 629.455 44.6632 640.643 49.6186ZM809.381 54.3489C847.969 63.1335 872.629 70.7919 900.714 81.8291C913.272 87.0098 923.775 91.2895 924.232 91.74C924.689 91.9652 916.697 100.074 906.422 109.76C865.551 148.502 835.639 194.453 811.664 255.946C792.028 306.626 786.776 335.008 783.123 412.493C780.611 464.976 777.643 482.996 766.226 516.558C752.526 555.976 735.63 576.924 716.678 576.924C710.056 576.924 706.86 575.573 702.293 569.941L696.356 562.959V435.018V307.077L706.631 302.122C728.323 291.76 744.306 264.055 741.11 242.206C737.913 219.23 724.213 199.859 704.576 190.624L696.356 186.795V133.411V80.0271L702.75 67.6385C707.088 59.0791 711.655 53.8984 718.048 50.2944C726.496 45.3389 729.008 45.1137 753.439 46.2399C771.249 46.9157 789.288 49.6186 809.381 54.3489ZM444.049 98.7227C445.648 105.705 458.434 155.71 468.024 191.75C476.244 222.384 478.756 245.134 480.582 303.248C482.637 372.624 489.944 408.439 508.439 441.775C519.627 462.273 529.217 474.661 554.105 501.015C586.072 534.803 603.653 562.283 606.393 582.105C607.535 590.439 606.85 592.691 601.598 598.998C593.607 608.459 588.127 608.233 571.002 597.196C548.169 582.555 531.957 575.347 495.881 563.634C457.977 551.246 434.916 540.659 414.366 526.243C397.013 514.08 386.281 503.043 363.22 473.535C340.615 444.478 322.805 426.233 294.492 402.807C252.25 367.894 225.992 332.53 208.41 286.354C199.962 264.28 199.734 265.181 215.032 248.513C243.345 217.654 291.752 177.785 340.158 145.574C361.85 131.158 435.373 92.641 441.081 92.641C441.994 92.641 443.364 95.344 444.049 98.7227ZM994.102 125.978C1039.54 153.007 1083.84 185.218 1112.38 211.572L1125.39 223.735L1120.14 230.943C1110.55 243.782 1094.34 275.768 1079.27 311.131C1046.85 387.49 1034.74 407.538 1001.41 438.847C964.19 473.986 937.247 488.852 876.282 507.998C843.402 518.36 822.167 527.144 792.028 542.686C791.114 542.912 793.854 533.451 797.964 521.288C808.468 491.105 812.349 465.201 815.089 406.862C816.459 379.607 818.514 351.226 819.656 343.792C827.876 293.337 851.394 234.772 881.534 189.272C897.06 166.072 935.42 126.428 953.002 115.391C965.56 107.733 962.135 106.832 994.102 125.978ZM1160.1 260C1192.98 297.166 1230.43 350.325 1249.15 386.139C1255.54 398.302 1260.34 408.664 1259.88 409.114C1259.65 409.34 1252.12 414.07 1243.21 419.25C1221.52 432.315 1203.25 447.181 1160.56 487.05C1084.29 558.454 1067.17 567.689 974.922 585.934C898.43 601.026 866.464 609.81 823.766 627.38C798.649 637.741 790.201 637.966 782.209 628.506C771.249 615.892 775.588 597.872 793.169 581.879C810.751 565.887 830.159 556.652 882.447 539.758C956.655 515.657 989.307 497.862 1026.75 460.696C1059.63 428.035 1077.67 398.302 1109.64 323.745C1124.25 289.958 1145.71 248.062 1148.45 248.062C1149.14 248.062 1154.39 253.468 1160.1 260ZM216.174 368.795C232.842 391.995 247.912 407.312 275.083 428.711C295.633 444.929 320.293 470.157 335.363 490.204C365.96 530.748 397.469 558.003 432.176 574.446C442.451 579.176 466.654 588.412 485.834 594.719C524.879 607.558 539.492 614.09 551.365 624.451C567.12 638.191 569.632 651.932 557.987 659.59C549.995 664.771 533.099 663.644 494.282 655.761C399.524 636.164 373.495 618.82 319.836 539.082C298.602 507.773 281.02 486.149 264.123 470.382C222.795 432.315 178.727 411.142 125.297 403.258L107.031 400.78L120.046 377.129C134.887 349.649 149.501 326.674 163.657 308.203L173.932 295.139L186.947 320.817C194.254 335.008 207.269 356.632 216.174 368.795ZM141.509 439.523C165.027 445.154 201.104 462.273 221.654 477.59C243.573 494.033 266.407 518.81 284.217 545.615C352.945 649.003 383.313 668.825 506.841 690.449C544.972 697.206 550.909 700.135 552.05 713.199C552.735 721.308 551.822 722.885 538.122 735.724C527.619 745.635 516.887 752.843 501.817 760.051C456.151 782.125 432.633 785.954 366.416 781.9C307.05 778.07 270.517 779.647 241.29 787.306C190.6 800.145 140.596 831.004 91.7325 878.756C81.4575 889.118 72.5526 897.001 72.0959 896.551C70.9543 895.199 55.1993 838.662 51.546 822.444C30.9961 733.021 33.2794 626.028 57.4827 530.748C63.191 508.449 71.6393 483.446 89.4492 437.496C91.2758 432.315 91.9608 432.09 106.802 433.666C115.251 434.342 130.777 437.045 141.509 439.523ZM1281.12 456.867C1296.87 491.555 1311.26 543.137 1318.79 593.142C1325.18 636.164 1325.87 756.447 1319.7 766.132C1318.11 768.835 1312.4 768.835 1287.05 766.583C1270.16 765.231 1249.38 762.303 1241.16 760.276C1222.89 755.771 1189.33 739.328 1152.34 716.803C1123.79 699.459 1098.22 688.647 1066.25 680.313C1049.81 676.033 1040.91 675.132 1006.89 675.132C961.45 674.907 947.75 677.385 910.989 692.251C899.115 697.206 881.077 704.189 871.031 708.018C840.662 719.281 817.601 716.578 809.381 700.81C792.484 668.375 845.229 643.147 987.937 615.216C1040.22 605.08 1061.69 598.773 1087.95 585.258C1113.06 572.194 1131.1 558.454 1176.54 517.008C1234.31 464.3 1262.62 441.775 1271.3 441.775C1272.9 441.775 1277.46 448.533 1281.12 456.867ZM1037.94 708.694C1073.56 714.776 1103.02 726.038 1138.18 746.986C1207.36 787.531 1231.57 796.09 1285.45 799.244C1299.15 799.919 1311.48 801.271 1312.85 802.172C1318.11 805.325 1297.33 881.91 1277.46 931.689C1263.99 965.702 1240.47 1011.65 1236.59 1011.65C1229.74 1011.65 1196.4 987.551 1177.91 969.081C1157.13 948.358 1147.54 935.744 1127.22 900.83C1088.17 833.707 1047.53 791.81 997.983 767.484C974.693 755.996 958.938 750.365 926.744 742.481C913.729 739.328 901.399 736.174 899.572 735.499C895.005 733.697 911.674 725.137 934.507 717.479C970.812 705.541 1002.78 702.838 1037.94 708.694ZM834.041 750.365C849.339 755.095 881.991 764.33 906.422 770.637C973.78 787.981 1000.49 801.046 1034.97 833.481C1057.35 854.429 1072.88 874.927 1097.54 915.246C1123.57 958.269 1134.75 973.36 1156.67 994.984C1173.34 1011.88 1203.94 1034.18 1214.67 1037.56C1217.18 1038.46 1219.24 1039.81 1219.24 1040.71C1219.24 1046.12 1177.22 1098.82 1149.37 1128.56L1135.9 1142.75L1123.57 1126.53C1105.76 1102.88 1094.34 1080.13 1070.14 1020.66C1037.71 940.699 1026.52 921.103 995.472 889.118C963.048 855.781 934.735 839.563 879.022 822.444C832.442 808.028 805.956 793.387 792.256 774.692C783.351 762.754 783.123 752.392 791.343 746.085C794.768 743.382 799.334 741.355 801.846 741.355C804.129 741.355 818.742 745.409 834.041 750.365ZM578.309 763.88C596.803 778.296 589.725 810.731 560.042 847.221C523.509 892.496 484.692 912.318 410.941 923.806C349.063 933.491 316.183 947.682 279.65 980.568C257.958 999.94 245.172 1019.09 222.339 1065.26C208.867 1092.74 199.734 1108.51 197.907 1108.06C190.144 1105.36 142.422 1039.36 120.959 1001.07C113.424 987.326 102.236 965.477 96.5275 952.863L86.2525 929.437L112.054 904.885C160.004 859.835 188.774 840.014 228.96 825.147C268.005 810.731 293.578 808.704 369.385 813.885C447.246 819.291 493.369 807.353 551.137 767.033C563.695 758.249 570.089 757.573 578.309 763.88ZM782.894 811.407C811.893 832.806 824.222 839.113 859.157 850.6C917.382 869.521 932.224 876.729 957.34 897.677C971.497 909.165 992.503 934.843 1004.83 955.34C1009.86 963.9 1024.01 994.534 1035.89 1023.37C1064.88 1094.09 1071.73 1107.61 1092.06 1137.34C1101.65 1151.53 1109.64 1163.69 1109.64 1164.82C1109.64 1167.97 1059.63 1206.27 1032 1224.06C976.52 1259.88 909.619 1289.16 848.426 1304.47C779.926 1321.37 737.685 1325.42 720.331 1316.86C710.285 1311.91 702.293 1301.55 698.64 1288.93C697.27 1283.75 696.356 1199.06 696.356 1054.22V827.625L701.608 819.966C705.718 813.66 710.513 810.957 727.181 805.1C757.321 794.513 760.974 794.964 782.894 811.407ZM657.312 816.588C662.792 821.994 663.248 824.246 663.933 845.645L664.847 868.62L636.99 889.793C597.945 919.526 575.34 946.331 557.987 983.271C548.397 1003.99 544.744 1018.41 537.894 1063.46C530.359 1111.89 519.627 1142.3 499.991 1170.23C492.684 1180.81 455.694 1222.93 431.034 1249.29L413.909 1267.08L392.903 1256.27C349.748 1234.42 294.492 1199.73 294.492 1194.33C294.492 1193.43 309.79 1177.66 328.513 1159.64C357.968 1131.26 365.046 1125.85 381.486 1117.74C391.989 1112.56 406.603 1107.38 413.909 1105.81C426.011 1103.55 428.066 1103.78 435.829 1108.06C441.081 1110.99 448.616 1113.01 454.324 1113.01C462.087 1113.01 465.284 1111.66 471.449 1105.58C484.464 1092.74 484.692 1080.8 472.362 1066.84C460.946 1054.22 445.876 1054.45 430.806 1067.51C428.523 1069.54 417.791 1072.92 407.059 1074.95C370.526 1082.38 337.418 1102.88 304.538 1138.69C288.783 1156.04 275.083 1164.82 264.58 1164.82C257.273 1164.82 241.062 1154.46 230.102 1143.2L221.882 1134.41L231.7 1117.74C237.18 1108.73 246.085 1091.16 251.108 1079C267.548 1040.71 283.532 1018.41 310.246 996.786C338.788 973.586 363.448 964.125 420.531 954.439C479.441 944.303 514.832 930.338 549.082 903.533C569.404 887.541 582.647 872.674 602.055 843.167C611.873 828.301 622.148 815.912 626.258 813.209C635.848 807.127 649.32 808.704 657.312 816.588ZM659.367 1299.97C656.398 1305.6 650.462 1312.58 646.123 1315.51C638.588 1320.47 636.533 1320.69 613.015 1319.57C586.072 1318.21 531.5 1308.3 501.132 1299.07C466.426 1288.48 447.474 1281.5 447.474 1279.25C447.474 1278.12 458.662 1265.28 472.591 1250.87C516.202 1204.69 537.209 1176.08 549.995 1144.32C559.585 1120.45 563.239 1106.26 569.632 1064.59C576.71 1019.76 579.907 1008.72 592.922 984.397C605.023 961.647 621.235 942.952 645.667 923.581L663.248 909.615L663.933 1099.72L664.39 1289.61L659.367 1299.97Z" fill="#3F4448"/>
<path d="M374.409 273.714C329.884 292.86 334.451 357.506 381.259 370.796C391.99 373.949 395.872 374.175 405.69 371.922C420.304 368.318 433.775 356.83 440.854 341.514C449.53 323.269 447.247 305.023 434.232 289.481C420.76 273.489 392.447 266.056 374.409 273.714Z" fill="#3F4448"/>
<path d="M920.122 223.485C910.304 232.045 906.194 244.884 909.848 255.696C916.013 274.391 937.704 282.726 953.231 272.364C973.552 258.849 973.096 233.396 952.546 221.008C941.357 214.25 929.941 215.151 920.122 223.485Z" fill="#3F4448"/>
<path d="M965.559 351.651C963.048 352.552 958.024 356.606 954.828 360.661C941.813 375.752 949.119 401.206 968.299 407.738C980.401 412.017 988.621 409.765 999.352 399.178C1006.66 391.745 1008.03 389.042 1008.03 380.708C1008.03 358.183 986.338 343.317 965.559 351.651Z" fill="#3F4448"/>
<path d="M159.319 543.112C145.847 550.995 140.139 565.862 144.706 579.602C154.067 607.307 190.372 608.884 202.474 582.305C214.575 555.275 184.435 527.795 159.319 543.112Z" fill="#3F4448"/>
<path d="M322.577 688.617C302.941 698.978 305.681 734.117 326.687 742.676C336.734 746.731 346.552 745.154 356.599 737.721C373.267 725.332 370.984 697.627 352.489 688.166C344.269 684.112 330.569 684.337 322.577 688.617Z" fill="#3F4448"/>
<path d="M127.353 723.309C117.763 728.94 112.968 738.626 112.968 751.69C112.968 760.926 114.109 763.178 121.873 770.836C129.864 778.72 131.919 779.621 142.423 779.621C152.469 779.621 155.209 778.495 162.516 772.188C169.594 765.656 170.964 762.953 171.649 752.366C172.791 737.5 167.768 728.265 155.666 722.633C145.163 717.678 136.258 717.903 127.353 723.309Z" fill="#3F4448"/>
<path d="M1218.1 552.339C1208.96 555.943 1200.06 565.854 1198.46 574.188C1193.66 598.966 1218.32 619.689 1240.24 609.327C1257.37 600.993 1263.53 583.649 1254.86 567.882C1247.09 553.015 1232.25 546.933 1218.1 552.339Z" fill="#3F4448"/>
<path d="M1205.08 877.605C1197.09 880.983 1191.61 887.966 1188.41 898.778C1183.62 915.446 1198.46 935.043 1216.04 935.043C1233.85 935.043 1246.41 922.204 1245.95 904.184C1245.95 892.696 1241.16 884.813 1231.11 878.731C1222.66 873.55 1215.13 873.1 1205.08 877.605Z" fill="#3F4448"/>
<path d="M875.825 900.581C863.952 906.662 858.7 915.222 858.7 928.061C858.7 947.207 873.085 961.172 890.438 958.92C903.91 957.343 916.697 943.378 916.697 930.088C916.697 907.113 894.32 891.12 875.825 900.581Z" fill="#3F4448"/>
<path d="M937.247 972.662C929.256 978.068 926.287 982.348 923.547 992.033C920.351 1003.3 926.744 1018.61 937.704 1025.14C962.364 1040.01 992.047 1012.31 979.489 986.177C972.182 970.635 950.262 963.877 937.247 972.662Z" fill="#3F4448"/>
<path d="M817.373 1055.33C784.036 1065.69 761.203 1094.52 759.605 1127.86C757.55 1166.38 777.871 1194.76 816.459 1207.6C869.433 1225.39 927.201 1178.32 920.122 1123.13C916.697 1095.65 893.407 1066.37 867.606 1056.91C852.993 1051.5 831.758 1050.83 817.373 1055.33Z" fill="#3F4448"/>
</svg>
