<svg width="520" height="750" viewBox="0 0 520 750" fill="none" xmlns="http://www.w3.org/2000/svg">
<rect width="520" height="750" fill="url(#paint0_linear_296_611)"/>
<path d="M430 394C430 429.346 353.665 458 259.5 458C165.335 458 89 429.346 89 394C89 358.654 165.335 330 259.5 330C353.665 330 430 358.654 430 394ZM90.705 394C90.705 428.993 166.277 457.36 259.5 457.36C352.723 457.36 428.295 428.993 428.295 394C428.295 359.007 352.723 330.64 259.5 330.64C166.277 330.64 90.705 359.007 90.705 394Z" fill="#3B363C"/>
<mask id="path-3-inside-1_296_611" fill="white">
<path d="M431 332C431 367.346 354.441 396 260 396C165.559 396 89 367.346 89 332C89 296.654 165.559 268 260 268C354.441 268 431 296.654 431 332ZM90.71 332C90.71 366.993 166.504 395.36 260 395.36C353.496 395.36 429.29 366.993 429.29 332C429.29 297.007 353.496 268.64 260 268.64C166.504 268.64 90.71 297.007 90.71 332Z"/>
</mask>
<path d="M431 332C431 367.346 354.441 396 260 396C165.559 396 89 367.346 89 332C89 296.654 165.559 268 260 268C354.441 268 431 296.654 431 332ZM90.71 332C90.71 366.993 166.504 395.36 260 395.36C353.496 395.36 429.29 366.993 429.29 332C429.29 297.007 353.496 268.64 260 268.64C166.504 268.64 90.71 297.007 90.71 332Z" stroke="#D9A776" stroke-width="2" stroke-dasharray="5 7" mask="url(#path-3-inside-1_296_611)"/>
<mask id="path-4-inside-2_296_611" fill="white">
<path d="M430 278C430 313.346 353.441 342 259 342C164.559 342 88 313.346 88 278C88 242.654 164.559 214 259 214C353.441 214 430 242.654 430 278ZM89.71 278C89.71 312.993 165.504 341.36 259 341.36C352.496 341.36 428.29 312.993 428.29 278C428.29 243.007 352.496 214.64 259 214.64C165.504 214.64 89.71 243.007 89.71 278Z"/>
</mask>
<path d="M430 278C430 313.346 353.441 342 259 342C164.559 342 88 313.346 88 278C88 242.654 164.559 214 259 214C353.441 214 430 242.654 430 278ZM89.71 278C89.71 312.993 165.504 341.36 259 341.36C352.496 341.36 428.29 312.993 428.29 278C428.29 243.007 352.496 214.64 259 214.64C165.504 214.64 89.71 243.007 89.71 278Z" stroke="#8D8AA9" stroke-width="2" mask="url(#path-4-inside-2_296_611)"/>
<defs>
<linearGradient id="paint0_linear_296_611" x1="260" y1="0" x2="260" y2="750" gradientUnits="userSpaceOnUse">
<stop stop-color="#313131"/>
<stop offset="1" stop-color="#0C0C0C"/>
</linearGradient>
</defs>
</svg>
