<svg width="520" height="75" viewBox="0 0 520 75" fill="none" xmlns="http://www.w3.org/2000/svg">
<path d="M201.318 49V25.7273H204.829V45.9773H215.375V49H201.318ZM217.828 49V31.5455H221.226V49H217.828ZM219.544 28.8523C218.953 28.8523 218.445 28.6553 218.021 28.2614C217.604 27.8598 217.396 27.3826 217.396 26.8295C217.396 26.2689 217.604 25.7917 218.021 25.3977C218.445 24.9962 218.953 24.7955 219.544 24.7955C220.135 24.7955 220.638 24.9962 221.055 25.3977C221.479 25.7917 221.691 26.2689 221.691 26.8295C221.691 27.3826 221.479 27.8598 221.055 28.2614C220.638 28.6553 220.135 28.8523 219.544 28.8523ZM224.789 49V25.7273H228.187V34.375H228.392C228.589 34.0114 228.873 33.5909 229.244 33.1136C229.615 32.6364 230.13 32.2197 230.789 31.8636C231.448 31.5 232.32 31.3182 233.403 31.3182C234.812 31.3182 236.07 31.6742 237.176 32.3864C238.282 33.0985 239.149 34.125 239.778 35.4659C240.414 36.8068 240.732 38.4205 240.732 40.3068C240.732 42.1932 240.418 43.8106 239.789 45.1591C239.161 46.5 238.297 47.5341 237.198 48.2614C236.1 48.9811 234.846 49.3409 233.437 49.3409C232.376 49.3409 231.509 49.1629 230.835 48.8068C230.168 48.4508 229.645 48.0341 229.267 47.5568C228.888 47.0795 228.596 46.6553 228.392 46.2841H228.107V49H224.789ZM228.119 40.2727C228.119 41.5 228.297 42.5758 228.653 43.5C229.009 44.4242 229.524 45.1477 230.198 45.6705C230.873 46.1856 231.698 46.4432 232.676 46.4432C233.691 46.4432 234.539 46.1742 235.221 45.6364C235.903 45.0909 236.418 44.3523 236.767 43.4205C237.123 42.4886 237.301 41.4394 237.301 40.2727C237.301 39.1212 237.126 38.0871 236.778 37.1705C236.437 36.2538 235.922 35.5303 235.232 35C234.551 34.4697 233.698 34.2045 232.676 34.2045C231.691 34.2045 230.857 34.4583 230.176 34.9659C229.501 35.4735 228.99 36.1818 228.642 37.0909C228.293 38 228.119 39.0606 228.119 40.2727ZM241.112 28.75V25.7273H259.123V28.75H251.862V49H248.362V28.75H241.112ZM266.371 49.3523C264.735 49.3523 263.307 48.9773 262.087 48.2273C260.868 47.4773 259.921 46.428 259.246 45.0795C258.572 43.7311 258.235 42.1553 258.235 40.3523C258.235 38.5417 258.572 36.9583 259.246 35.6023C259.921 34.2462 260.868 33.1932 262.087 32.4432C263.307 31.6932 264.735 31.3182 266.371 31.3182C268.008 31.3182 269.436 31.6932 270.655 32.4432C271.875 33.1932 272.822 34.2462 273.496 35.6023C274.171 36.9583 274.508 38.5417 274.508 40.3523C274.508 42.1553 274.171 43.7311 273.496 45.0795C272.822 46.428 271.875 47.4773 270.655 48.2273C269.436 48.9773 268.008 49.3523 266.371 49.3523ZM266.383 46.5C267.443 46.5 268.322 46.2197 269.019 45.6591C269.716 45.0985 270.231 44.3523 270.565 43.4205C270.905 42.4886 271.076 41.4621 271.076 40.3409C271.076 39.2273 270.905 38.2045 270.565 37.2727C270.231 36.3333 269.716 35.5795 269.019 35.0114C268.322 34.4432 267.443 34.1591 266.383 34.1591C265.315 34.1591 264.428 34.4432 263.724 35.0114C263.027 35.5795 262.508 36.3333 262.167 37.2727C261.833 38.2045 261.667 39.2273 261.667 40.3409C261.667 41.4621 261.833 42.4886 262.167 43.4205C262.508 44.3523 263.027 45.0985 263.724 45.6591C264.428 46.2197 265.315 46.5 266.383 46.5ZM277.02 49V31.5455H280.304V34.3182H280.486C280.804 33.3788 281.365 32.6402 282.168 32.1023C282.979 31.5568 283.895 31.2841 284.918 31.2841C285.13 31.2841 285.38 31.2917 285.668 31.3068C285.964 31.322 286.195 31.3409 286.361 31.3636V34.6136C286.225 34.5758 285.982 34.5341 285.634 34.4886C285.285 34.4356 284.937 34.4091 284.589 34.4091C283.785 34.4091 283.07 34.5795 282.441 34.9205C281.82 35.2538 281.327 35.7197 280.964 36.3182C280.6 36.9091 280.418 37.5833 280.418 38.3409V49H277.02ZM294.749 49.3523C293.059 49.3523 291.605 48.9697 290.385 48.2045C289.173 47.4318 288.241 46.3674 287.59 45.0114C286.938 43.6553 286.612 42.1023 286.612 40.3523C286.612 38.5795 286.946 37.0152 287.612 35.6591C288.279 34.2955 289.219 33.2311 290.431 32.4659C291.643 31.7008 293.071 31.3182 294.715 31.3182C296.041 31.3182 297.222 31.5644 298.26 32.0568C299.298 32.5417 300.135 33.2235 300.772 34.1023C301.416 34.9811 301.798 36.0076 301.919 37.1818H298.612C298.431 36.3636 298.014 35.6591 297.362 35.0682C296.719 34.4773 295.855 34.1818 294.772 34.1818C293.825 34.1818 292.995 34.4318 292.283 34.9318C291.578 35.4242 291.029 36.1288 290.635 37.0455C290.241 37.9545 290.044 39.0303 290.044 40.2727C290.044 41.5455 290.237 42.6439 290.624 43.5682C291.01 44.4924 291.556 45.2083 292.26 45.7159C292.972 46.2235 293.809 46.4773 294.772 46.4773C295.416 46.4773 295.999 46.3598 296.522 46.125C297.052 45.8826 297.495 45.5379 297.851 45.0909C298.215 44.6439 298.469 44.1061 298.612 43.4773H301.919C301.798 44.6061 301.431 45.6136 300.817 46.5C300.203 47.3864 299.381 48.0833 298.351 48.5909C297.328 49.0985 296.128 49.3523 294.749 49.3523ZM307.671 38.6364V49H304.273V25.7273H307.625V34.3864H307.841C308.25 33.447 308.875 32.7008 309.716 32.1477C310.557 31.5947 311.655 31.3182 313.011 31.3182C314.208 31.3182 315.254 31.5644 316.148 32.0568C317.049 32.5492 317.746 33.2841 318.239 34.2614C318.739 35.2311 318.989 36.4432 318.989 37.8977V49H315.591V38.3068C315.591 37.0265 315.261 36.0341 314.602 35.3295C313.943 34.6174 313.027 34.2614 311.852 34.2614C311.049 34.2614 310.33 34.4318 309.693 34.7727C309.064 35.1136 308.568 35.6136 308.205 36.2727C307.849 36.9242 307.671 37.7121 307.671 38.6364Z" fill="#B8B8B8"/>
</svg>
