<svg width="520" height="75" viewBox="0 0 520 75" fill="none" xmlns="http://www.w3.org/2000/svg">
<path d="M175.86 37.3636C175.86 39.8485 175.405 41.9848 174.496 43.7727C173.587 45.553 172.341 46.9242 170.757 47.8864C169.182 48.8409 167.39 49.3182 165.382 49.3182C163.367 49.3182 161.568 48.8409 159.985 47.8864C158.409 46.9242 157.166 45.5492 156.257 43.7614C155.348 41.9735 154.894 39.8409 154.894 37.3636C154.894 34.8788 155.348 32.7462 156.257 30.9659C157.166 29.178 158.409 27.8068 159.985 26.8523C161.568 25.8902 163.367 25.4091 165.382 25.4091C167.39 25.4091 169.182 25.8902 170.757 26.8523C172.341 27.8068 173.587 29.178 174.496 30.9659C175.405 32.7462 175.86 34.8788 175.86 37.3636ZM172.382 37.3636C172.382 35.4697 172.076 33.875 171.462 32.5795C170.856 31.2765 170.022 30.2917 168.962 29.625C167.909 28.9508 166.716 28.6136 165.382 28.6136C164.041 28.6136 162.844 28.9508 161.791 29.625C160.738 30.2917 159.905 31.2765 159.291 32.5795C158.685 33.875 158.382 35.4697 158.382 37.3636C158.382 39.2576 158.685 40.8561 159.291 42.1591C159.905 43.4545 160.738 44.4394 161.791 45.1136C162.844 45.7803 164.041 46.1136 165.382 46.1136C166.716 46.1136 167.909 45.7803 168.962 45.1136C170.022 44.4394 170.856 43.4545 171.462 42.1591C172.076 40.8561 172.382 39.2576 172.382 37.3636ZM197.742 25.7273V49H194.514L182.685 31.9318H182.469V49H178.957V25.7273H182.207L194.048 42.8182H194.264V25.7273H197.742ZM220.368 25.7273V49H217.141L205.311 31.9318H205.095V49H201.584V25.7273H204.834L216.675 42.8182H216.891V25.7273H220.368ZM226.653 25.7273L232.221 34.8295H232.403L237.971 25.7273H242.04L234.79 37.3636L242.085 49H237.994L232.403 40.0227H232.221L226.63 49H222.54L229.96 37.3636L222.585 25.7273H226.653ZM251.431 49V25.7273H259.727C261.53 25.7273 263.026 26.0379 264.215 26.6591C265.412 27.2803 266.306 28.1402 266.897 29.2386C267.488 30.3295 267.783 31.5909 267.783 33.0227C267.783 34.447 267.484 35.7008 266.886 36.7841C266.295 37.8598 265.401 38.697 264.204 39.2955C263.015 39.8939 261.518 40.1932 259.715 40.1932H253.431V37.1705H259.397C260.533 37.1705 261.458 37.0076 262.17 36.6818C262.89 36.3561 263.416 35.8826 263.749 35.2614C264.083 34.6402 264.249 33.8939 264.249 33.0227C264.249 32.1439 264.079 31.3826 263.738 30.7386C263.405 30.0947 262.878 29.6023 262.158 29.2614C261.446 28.9129 260.511 28.7386 259.352 28.7386H254.943V49H251.431ZM262.92 38.5L268.67 49H264.67L259.033 38.5H262.92ZM281.56 41.7614V31.5455H284.969V49H281.628V45.9773H281.447C281.045 46.9091 280.401 47.6856 279.515 48.3068C278.636 48.9205 277.541 49.2273 276.231 49.2273C275.11 49.2273 274.117 48.9811 273.253 48.4886C272.397 47.9886 271.723 47.25 271.231 46.2727C270.746 45.2955 270.503 44.0871 270.503 42.6477V31.5455H273.901V42.2386C273.901 43.428 274.231 44.375 274.89 45.0795C275.549 45.7841 276.405 46.1364 277.458 46.1364C278.094 46.1364 278.727 45.9773 279.356 45.6591C279.992 45.3409 280.519 44.8598 280.935 44.2159C281.36 43.572 281.568 42.7538 281.56 41.7614ZM291.652 38.6364V49H288.255V31.5455H291.516V34.3864H291.732C292.134 33.4621 292.762 32.7197 293.618 32.1591C294.482 31.5985 295.569 31.3182 296.88 31.3182C298.069 31.3182 299.111 31.5682 300.005 32.0682C300.899 32.5606 301.592 33.2955 302.084 34.2727C302.577 35.25 302.823 36.4583 302.823 37.8977V49H299.425V38.3068C299.425 37.0417 299.096 36.053 298.437 35.3409C297.777 34.6212 296.872 34.2614 295.721 34.2614C294.933 34.2614 294.232 34.4318 293.618 34.7727C293.012 35.1136 292.531 35.6136 292.175 36.2727C291.827 36.9242 291.652 37.7121 291.652 38.6364ZM314.247 31.5455V34.2727H304.713V31.5455H314.247ZM307.27 27.3636H310.668V43.875C310.668 44.5341 310.766 45.0303 310.963 45.3636C311.16 45.6894 311.414 45.9129 311.725 46.0341C312.043 46.1477 312.388 46.2045 312.759 46.2045C313.032 46.2045 313.27 46.1856 313.475 46.1477C313.679 46.1098 313.838 46.0795 313.952 46.0568L314.566 48.8636C314.369 48.9394 314.088 49.0152 313.725 49.0909C313.361 49.1742 312.907 49.2197 312.361 49.2273C311.467 49.2424 310.634 49.0833 309.861 48.75C309.088 48.4167 308.463 47.9015 307.986 47.2045C307.509 46.5076 307.27 45.6326 307.27 44.5795V27.3636ZM316.726 49V31.5455H320.124V49H316.726ZM318.442 28.8523C317.851 28.8523 317.343 28.6553 316.919 28.2614C316.503 27.8598 316.294 27.3826 316.294 26.8295C316.294 26.2689 316.503 25.7917 316.919 25.3977C317.343 24.9962 317.851 24.7955 318.442 24.7955C319.033 24.7955 319.537 24.9962 319.953 25.3977C320.378 25.7917 320.59 26.2689 320.59 26.8295C320.59 27.3826 320.378 27.8598 319.953 28.2614C319.537 28.6553 319.033 28.8523 318.442 28.8523ZM323.415 49V31.5455H326.676V34.3864H326.892C327.256 33.4242 327.85 32.6742 328.676 32.1364C329.502 31.5909 330.49 31.3182 331.642 31.3182C332.809 31.3182 333.786 31.5909 334.574 32.1364C335.369 32.6818 335.956 33.4318 336.335 34.3864H336.517C336.934 33.4545 337.597 32.7121 338.506 32.1591C339.415 31.5985 340.498 31.3182 341.756 31.3182C343.339 31.3182 344.631 31.8144 345.631 32.8068C346.638 33.7992 347.142 35.2955 347.142 37.2955V49H343.744V37.6136C343.744 36.4318 343.422 35.5758 342.778 35.0455C342.134 34.5152 341.365 34.25 340.472 34.25C339.365 34.25 338.506 34.5909 337.892 35.2727C337.278 35.947 336.972 36.8144 336.972 37.875V49H333.585V37.3977C333.585 36.4508 333.29 35.6894 332.699 35.1136C332.108 34.5379 331.339 34.25 330.392 34.25C329.748 34.25 329.153 34.4205 328.608 34.7614C328.07 35.0947 327.634 35.5606 327.301 36.1591C326.975 36.7576 326.812 37.4508 326.812 38.2386V49H323.415ZM357.939 49.3523C356.219 49.3523 354.738 48.9848 353.496 48.25C352.261 47.5076 351.306 46.4659 350.632 45.125C349.965 43.7765 349.632 42.197 349.632 40.3864C349.632 38.5985 349.965 37.0227 350.632 35.6591C351.306 34.2955 352.246 33.2311 353.45 32.4659C354.662 31.7008 356.079 31.3182 357.7 31.3182C358.685 31.3182 359.639 31.4811 360.564 31.8068C361.488 32.1326 362.318 32.6439 363.052 33.3409C363.787 34.0379 364.367 34.9432 364.791 36.0568C365.215 37.1629 365.427 38.5076 365.427 40.0909V41.2955H351.552V38.75H362.098C362.098 37.8561 361.916 37.0644 361.552 36.375C361.189 35.678 360.677 35.1288 360.018 34.7273C359.367 34.3258 358.602 34.125 357.723 34.125C356.768 34.125 355.935 34.3598 355.223 34.8295C354.518 35.2917 353.973 35.8977 353.586 36.6477C353.208 37.3902 353.018 38.197 353.018 39.0682V41.0568C353.018 42.2235 353.223 43.2159 353.632 44.0341C354.049 44.8523 354.628 45.4773 355.371 45.9091C356.113 46.3333 356.98 46.5455 357.973 46.5455C358.617 46.5455 359.204 46.4545 359.734 46.2727C360.264 46.0833 360.723 45.803 361.109 45.4318C361.496 45.0606 361.791 44.6023 361.996 44.0568L365.211 44.6364C364.954 45.5833 364.492 46.4129 363.825 47.125C363.166 47.8295 362.336 48.3788 361.336 48.7727C360.344 49.1591 359.211 49.3523 357.939 49.3523Z" fill="#B8B8B8"/>
</svg>
