<svg width="520" height="75" viewBox="0 0 520 75" fill="none" xmlns="http://www.w3.org/2000/svg">
<path d="M152.416 28.75V25.7273H170.427V28.75H163.166V49H159.666V28.75H152.416ZM177.846 49.3523C176.126 49.3523 174.645 48.9848 173.403 48.25C172.168 47.5076 171.214 46.4659 170.539 45.125C169.873 43.7765 169.539 42.197 169.539 40.3864C169.539 38.5985 169.873 37.0227 170.539 35.6591C171.214 34.2955 172.153 33.2311 173.358 32.4659C174.57 31.7008 175.986 31.3182 177.608 31.3182C178.592 31.3182 179.547 31.4811 180.471 31.8068C181.395 32.1326 182.225 32.6439 182.96 33.3409C183.695 34.0379 184.274 34.9432 184.698 36.0568C185.123 37.1629 185.335 38.5076 185.335 40.0909V41.2955H171.46V38.75H182.005C182.005 37.8561 181.823 37.0644 181.46 36.375C181.096 35.678 180.585 35.1288 179.926 34.7273C179.274 34.3258 178.509 34.125 177.63 34.125C176.676 34.125 175.842 34.3598 175.13 34.8295C174.426 35.2917 173.88 35.8977 173.494 36.6477C173.115 37.3902 172.926 38.197 172.926 39.0682V41.0568C172.926 42.2235 173.13 43.2159 173.539 44.0341C173.956 44.8523 174.536 45.4773 175.278 45.9091C176.02 46.3333 176.888 46.5455 177.88 46.5455C178.524 46.5455 179.111 46.4545 179.642 46.2727C180.172 46.0833 180.63 45.803 181.017 45.4318C181.403 45.0606 181.698 44.6023 181.903 44.0568L185.119 44.6364C184.861 45.5833 184.399 46.4129 183.733 47.125C183.073 47.8295 182.244 48.3788 181.244 48.7727C180.251 49.1591 179.119 49.3523 177.846 49.3523ZM191.222 38.6364V49H187.825V31.5455H191.086V34.3864H191.302C191.703 33.4621 192.332 32.7197 193.188 32.1591C194.052 31.5985 195.139 31.3182 196.45 31.3182C197.639 31.3182 198.681 31.5682 199.575 32.0682C200.469 32.5606 201.162 33.2955 201.654 34.2727C202.147 35.25 202.393 36.4583 202.393 37.8977V49H198.995V38.3068C198.995 37.0417 198.666 36.053 198.007 35.3409C197.347 34.6212 196.442 34.2614 195.291 34.2614C194.503 34.2614 193.802 34.4318 193.188 34.7727C192.582 35.1136 192.101 35.6136 191.745 36.2727C191.397 36.9242 191.222 37.7121 191.222 38.6364ZM218.749 35.8068L215.67 36.3523C215.541 35.9583 215.336 35.5833 215.056 35.2273C214.783 34.8712 214.412 34.5795 213.942 34.3523C213.473 34.125 212.886 34.0114 212.181 34.0114C211.219 34.0114 210.416 34.2273 209.772 34.6591C209.128 35.0833 208.806 35.6326 208.806 36.3068C208.806 36.8902 209.022 37.3598 209.454 37.7159C209.886 38.072 210.583 38.3636 211.545 38.5909L214.317 39.2273C215.923 39.5985 217.12 40.1705 217.908 40.9432C218.696 41.7159 219.09 42.7197 219.09 43.9545C219.09 45 218.787 45.9318 218.181 46.75C217.583 47.5606 216.745 48.197 215.67 48.6591C214.602 49.1212 213.363 49.3523 211.954 49.3523C209.999 49.3523 208.405 48.9356 207.17 48.1023C205.935 47.2614 205.177 46.0682 204.897 44.5227L208.181 44.0227C208.386 44.8788 208.806 45.5265 209.442 45.9659C210.079 46.3977 210.908 46.6136 211.931 46.6136C213.045 46.6136 213.935 46.3826 214.602 45.9205C215.268 45.4508 215.602 44.8788 215.602 44.2045C215.602 43.6591 215.397 43.2008 214.988 42.8295C214.586 42.4583 213.969 42.178 213.136 41.9886L210.181 41.3409C208.552 40.9697 207.348 40.3788 206.567 39.5682C205.795 38.7576 205.408 37.7311 205.408 36.4886C205.408 35.4583 205.696 34.5568 206.272 33.7841C206.848 33.0114 207.643 32.4091 208.658 31.9773C209.673 31.5379 210.836 31.3182 212.147 31.3182C214.033 31.3182 215.518 31.7273 216.602 32.5455C217.685 33.3561 218.401 34.4432 218.749 35.8068ZM228.898 49.3523C227.262 49.3523 225.834 48.9773 224.614 48.2273C223.394 47.4773 222.447 46.428 221.773 45.0795C221.099 43.7311 220.762 42.1553 220.762 40.3523C220.762 38.5417 221.099 36.9583 221.773 35.6023C222.447 34.2462 223.394 33.1932 224.614 32.4432C225.834 31.6932 227.262 31.3182 228.898 31.3182C230.535 31.3182 231.963 31.6932 233.182 32.4432C234.402 33.1932 235.349 34.2462 236.023 35.6023C236.697 36.9583 237.035 38.5417 237.035 40.3523C237.035 42.1553 236.697 43.7311 236.023 45.0795C235.349 46.428 234.402 47.4773 233.182 48.2273C231.963 48.9773 230.535 49.3523 228.898 49.3523ZM228.91 46.5C229.97 46.5 230.849 46.2197 231.546 45.6591C232.243 45.0985 232.758 44.3523 233.091 43.4205C233.432 42.4886 233.603 41.4621 233.603 40.3409C233.603 39.2273 233.432 38.2045 233.091 37.2727C232.758 36.3333 232.243 35.5795 231.546 35.0114C230.849 34.4432 229.97 34.1591 228.91 34.1591C227.841 34.1591 226.955 34.4432 226.251 35.0114C225.554 35.5795 225.035 36.3333 224.694 37.2727C224.36 38.2045 224.194 39.2273 224.194 40.3409C224.194 41.4621 224.36 42.4886 224.694 43.4205C225.035 44.3523 225.554 45.0985 226.251 45.6591C226.955 46.2197 227.841 46.5 228.91 46.5ZM239.547 49V31.5455H242.831V34.3182H243.013C243.331 33.3788 243.892 32.6402 244.695 32.1023C245.506 31.5568 246.422 31.2841 247.445 31.2841C247.657 31.2841 247.907 31.2917 248.195 31.3068C248.49 31.322 248.721 31.3409 248.888 31.3636V34.6136C248.752 34.5758 248.509 34.5341 248.161 34.4886C247.812 34.4356 247.464 34.4091 247.115 34.4091C246.312 34.4091 245.596 34.5795 244.968 34.9205C244.346 35.2538 243.854 35.7197 243.49 36.3182C243.127 36.9091 242.945 37.5833 242.945 38.3409V49H239.547ZM259.887 31.5455V34.2727H250.023V31.5455H259.887ZM252.727 49V29.5227C252.727 28.4318 252.966 27.5265 253.443 26.8068C253.921 26.0795 254.553 25.5379 255.341 25.1818C256.129 24.8182 256.985 24.6364 257.909 24.6364C258.591 24.6364 259.174 24.6932 259.659 24.8068C260.144 24.9129 260.504 25.0114 260.739 25.1023L259.943 27.8523C259.784 27.8068 259.58 27.7538 259.33 27.6932C259.08 27.625 258.777 27.5909 258.421 27.5909C257.595 27.5909 257.004 27.7955 256.648 28.2045C256.299 28.6136 256.125 29.2045 256.125 29.9773V49H252.727ZM265.51 25.7273V49H262.112V25.7273H265.51ZM276.153 49.3523C274.517 49.3523 273.089 48.9773 271.869 48.2273C270.649 47.4773 269.702 46.428 269.028 45.0795C268.354 43.7311 268.017 42.1553 268.017 40.3523C268.017 38.5417 268.354 36.9583 269.028 35.6023C269.702 34.2462 270.649 33.1932 271.869 32.4432C273.089 31.6932 274.517 31.3182 276.153 31.3182C277.79 31.3182 279.218 31.6932 280.437 32.4432C281.657 33.1932 282.604 34.2462 283.278 35.6023C283.952 36.9583 284.29 38.5417 284.29 40.3523C284.29 42.1553 283.952 43.7311 283.278 45.0795C282.604 46.428 281.657 47.4773 280.437 48.2273C279.218 48.9773 277.79 49.3523 276.153 49.3523ZM276.165 46.5C277.225 46.5 278.104 46.2197 278.801 45.6591C279.498 45.0985 280.013 44.3523 280.346 43.4205C280.687 42.4886 280.858 41.4621 280.858 40.3409C280.858 39.2273 280.687 38.2045 280.346 37.2727C280.013 36.3333 279.498 35.5795 278.801 35.0114C278.104 34.4432 277.225 34.1591 276.165 34.1591C275.096 34.1591 274.21 34.4432 273.506 35.0114C272.809 35.5795 272.29 36.3333 271.949 37.2727C271.615 38.2045 271.449 39.2273 271.449 40.3409C271.449 41.4621 271.615 42.4886 271.949 43.4205C272.29 44.3523 272.809 45.0985 273.506 45.6591C274.21 46.2197 275.096 46.5 276.165 46.5ZM290.055 49L284.919 31.5455H288.43L291.851 44.3636H292.021L295.453 31.5455H298.964L302.373 44.3068H302.544L305.941 31.5455H309.453L304.328 49H300.862L297.316 36.3977H297.055L293.51 49H290.055ZM318.859 49V25.7273H322.37V45.9773H332.916V49H318.859ZM335.368 49V31.5455H338.766V49H335.368ZM337.084 28.8523C336.493 28.8523 335.986 28.6553 335.562 28.2614C335.145 27.8598 334.937 27.3826 334.937 26.8295C334.937 26.2689 335.145 25.7917 335.562 25.3977C335.986 24.9962 336.493 24.7955 337.084 24.7955C337.675 24.7955 338.179 24.9962 338.596 25.3977C339.02 25.7917 339.232 26.2689 339.232 26.8295C339.232 27.3826 339.02 27.8598 338.596 28.2614C338.179 28.6553 337.675 28.8523 337.084 28.8523ZM350.205 31.5455V34.2727H340.671V31.5455H350.205ZM343.228 27.3636H346.625V43.875C346.625 44.5341 346.724 45.0303 346.921 45.3636C347.118 45.6894 347.372 45.9129 347.682 46.0341C348 46.1477 348.345 46.2045 348.716 46.2045C348.989 46.2045 349.228 46.1856 349.432 46.1477C349.637 46.1098 349.796 46.0795 349.909 46.0568L350.523 48.8636C350.326 48.9394 350.046 49.0152 349.682 49.0909C349.319 49.1742 348.864 49.2197 348.319 49.2273C347.425 49.2424 346.591 49.0833 345.819 48.75C345.046 48.4167 344.421 47.9015 343.944 47.2045C343.466 46.5076 343.228 45.6326 343.228 44.5795V27.3636ZM360.019 49.3523C358.299 49.3523 356.818 48.9848 355.575 48.25C354.341 47.5076 353.386 46.4659 352.712 45.125C352.045 43.7765 351.712 42.197 351.712 40.3864C351.712 38.5985 352.045 37.0227 352.712 35.6591C353.386 34.2955 354.325 33.2311 355.53 32.4659C356.742 31.7008 358.159 31.3182 359.78 31.3182C360.765 31.3182 361.719 31.4811 362.644 31.8068C363.568 32.1326 364.397 32.6439 365.132 33.3409C365.867 34.0379 366.447 34.9432 366.871 36.0568C367.295 37.1629 367.507 38.5076 367.507 40.0909V41.2955H353.632V38.75H364.178C364.178 37.8561 363.996 37.0644 363.632 36.375C363.269 35.678 362.757 35.1288 362.098 34.7273C361.447 34.3258 360.682 34.125 359.803 34.125C358.848 34.125 358.015 34.3598 357.303 34.8295C356.598 35.2917 356.053 35.8977 355.666 36.6477C355.288 37.3902 355.098 38.197 355.098 39.0682V41.0568C355.098 42.2235 355.303 43.2159 355.712 44.0341C356.129 44.8523 356.708 45.4773 357.45 45.9091C358.193 46.3333 359.06 46.5455 360.053 46.5455C360.697 46.5455 361.284 46.4545 361.814 46.2727C362.344 46.0833 362.803 45.803 363.189 45.4318C363.575 45.0606 363.871 44.6023 364.075 44.0568L367.291 44.6364C367.034 45.5833 366.572 46.4129 365.905 47.125C365.246 47.8295 364.416 48.3788 363.416 48.7727C362.424 49.1591 361.291 49.3523 360.019 49.3523Z" fill="#B8B8B8"/>
</svg>
